<?xml version="1.0" encoding="UTF-8"?>
<svg version="1.1" xmlns="http://www.w3.org/2000/svg" width="864" height="754">
<path d="M0 0 C285.12 0 570.24 0 864 0 C864 248.82 864 497.64 864 754 C578.88 754 293.76 754 0 754 C0 505.18 0 256.36 0 0 Z " fill="#1A7E90" transform="translate(0,0)"/>
<path d="M0 0 C1.39070709 0.00614822 1.39070709 0.00614822 2.80950928 0.01242065 C57.85335106 0.29747145 112.25165124 15.67194767 157.3125 48.25 C158.85744141 49.35601562 158.85744141 49.35601562 160.43359375 50.484375 C175.30325575 61.39008289 190.73742567 73.84612518 202.53515625 88.10546875 C203.96288101 89.82815204 205.44065517 91.5092969 206.93359375 93.17578125 C223.63878634 111.89458331 236.60821082 133.6317685 247.3125 156.25 C247.60189453 156.85005859 247.89128906 157.45011719 248.18945312 158.06835938 C256.91026623 176.28472753 263.78560399 196.35357772 267.3125 216.25 C267.49151855 217.21953613 267.67053711 218.18907227 267.85498047 219.18798828 C270.7725575 235.5928961 271.68967854 251.67465524 271.6875 268.3125 C271.68931274 269.19967712 271.69112549 270.08685425 271.69299316 271.00091553 C271.68887822 288.76802292 270.62107888 306.49299266 266.75 323.875 C266.49387939 325.0410376 266.23775879 326.2070752 265.97387695 327.40844727 C252.74849297 385.09561146 220.30035454 440.60988628 173.3125 477.25 C172.2458603 478.11660302 171.18082866 478.98518803 170.1171875 479.85546875 C146.68207744 498.88380335 119.64147928 513.36792377 91.05859375 522.98046875 C87.93836768 524.03789677 84.88113675 525.17984674 81.8125 526.375 C70.40717059 530.49453689 58.43087366 532.50132612 46.5 534.4375 C45.47503418 534.60443359 44.45006836 534.77136719 43.39404297 534.94335938 C29.42265184 537.12561748 15.6127389 537.49106559 1.5 537.5 C0.06195007 537.50101212 0.06195007 537.50101212 -1.40515137 537.50204468 C-15.71915589 537.48604854 -29.59920541 536.97219129 -43.6875 534.25 C-44.57002441 534.0943457 -45.45254883 533.93869141 -46.36181641 533.77832031 C-95.21269867 525.09179253 -140.70580491 501.84548528 -177.23046875 468.484375 C-178.84214463 467.01874924 -180.46942582 465.57006451 -182.11328125 464.140625 C-229.47986167 422.74208262 -260.06999621 357.18941138 -265.16723633 294.94458008 C-267.29773478 263.23683201 -266.37900447 230.99881047 -257.6875 200.25 C-257.48962891 199.50911133 -257.29175781 198.76822266 -257.08789062 198.00488281 C-242.57548176 143.77312722 -208.79258959 91.26994045 -163.6875 57.25 C-163.16607422 56.8468457 -162.64464844 56.44369141 -162.10742188 56.02832031 C-128.77193444 30.28312637 -90.68326355 13.39950065 -49.625 4.5625 C-48.69220215 4.35971436 -47.7594043 4.15692871 -46.79833984 3.94799805 C-31.19798453 0.72872776 -15.88412146 -0.09981366 0 0 Z " fill="#FEFEFE" transform="translate(428.6875,107.75)"/>
<path d="M0 0 C1.10352466 -0.00583219 2.20704931 -0.01166439 3.34401411 -0.01767331 C5.15450179 -0.01200433 5.15450179 -0.01200433 7.00156498 -0.00622082 C8.93110156 -0.01195914 8.93110156 -0.01195914 10.89961869 -0.01781338 C14.46826466 -0.02810774 18.03681032 -0.02590793 21.60546458 -0.02163279 C25.4548909 -0.01916818 29.30429291 -0.02817641 33.15371037 -0.03567028 C40.69426551 -0.04842652 48.23478507 -0.05020984 55.77534919 -0.04787002 C61.90361557 -0.0460878 68.03187114 -0.04783443 74.16013622 -0.05209446 C75.03196523 -0.05268965 75.90379423 -0.05328484 76.80204229 -0.05389806 C78.57309524 -0.0551098 80.34414818 -0.05632393 82.11520112 -0.05754044 C98.7279792 -0.06841946 115.34073697 -0.06625172 131.95351619 -0.06015559 C147.15520747 -0.05498562 162.35683468 -0.06624334 177.55851328 -0.08525381 C193.16417787 -0.10462004 208.76981213 -0.11289038 224.37548882 -0.10913056 C233.13827374 -0.10721673 241.90100413 -0.1097238 250.66377926 -0.1238451 C258.12324546 -0.13574436 265.58262356 -0.13718015 273.04209094 -0.12505493 C276.84840214 -0.1191561 280.65455206 -0.11809443 284.46085262 -0.13005733 C288.58588006 -0.1428714 292.71052178 -0.1324757 296.83554935 -0.11974621 C298.04031042 -0.12712049 299.24507149 -0.13449478 300.48634046 -0.14209253 C307.87154359 -0.09397732 312.48190061 0.60318167 318.16954899 5.62947559 C322.85299449 10.94581914 324.0493824 14.37843677 323.82970524 21.46541309 C323.1069067 27.26404405 321.07149645 30.96939041 316.54454899 34.62947559 C311.86798073 37.11091998 308.3172373 38.5038174 302.98530197 38.5117445 C301.88649411 38.51819339 300.78768625 38.52464228 299.65558118 38.5312866 C298.45384458 38.52818939 297.25210798 38.52509219 296.01395512 38.52190113 C294.73309208 38.52643224 293.45222904 38.53096336 292.13255197 38.53563178 C288.57917352 38.5478666 285.02588919 38.54760075 281.47249448 38.54524302 C277.63938627 38.54483498 273.80630829 38.55587284 269.97321415 38.56535816 C262.4640765 38.58197184 254.95497025 38.58746788 247.44581576 38.58858292 C241.34187957 38.58953323 235.23795373 38.59364268 229.13402081 38.59998417 C211.82809767 38.61759768 194.52219935 38.62682288 177.21626719 38.62532322 C176.28327938 38.62524331 175.35029158 38.6251634 174.38903141 38.62508106 C173.45490436 38.6249993 172.52077732 38.62491754 171.55834339 38.6248333 C156.41941807 38.6240204 141.28059224 38.64315889 126.1416957 38.6713578 C110.5970411 38.70008401 95.05243502 38.71389823 79.50775319 38.71217024 C70.7806537 38.71150624 62.0536585 38.71700282 53.32658291 38.73852634 C45.89606882 38.75673471 38.46570631 38.76108836 31.03517958 38.7475075 C27.24477386 38.74097602 23.45465897 38.74086682 19.66428089 38.758214 C15.55299828 38.77683613 11.44238941 38.764395 7.33109379 38.74895191 C5.53852714 38.7643826 5.53852714 38.7643826 3.70974702 38.78012502 C-3.58533383 38.7194931 -9.53193057 37.96742124 -15.0336774 32.84258878 C-19.26380443 28.09480473 -21.0232023 23.75654952 -20.83045101 17.37166309 C-20.05705684 12.13191757 -17.5295684 7.85918885 -13.58045101 4.37947559 C-9.03186103 1.22331112 -5.53020811 0.0050365 0 0 Z " fill="#1B8091" transform="translate(278.5179510116577,440.7455244064331)"/>
<path d="M0 0 C1.30202608 -0.00724325 2.60405216 -0.01448649 3.94553357 -0.02194923 C7.53967938 -0.04109541 11.13280328 -0.02306203 14.72688138 0.00134361 C18.61034147 0.0211499 22.49369195 0.0062131 26.37716675 -0.00430298 C33.97613377 -0.01939932 41.57470796 -0.00254291 49.17362615 0.02524792 C58.02449871 0.05645051 66.87528709 0.05618805 75.72620431 0.05473018 C91.5172848 0.05322952 107.30818276 0.0806826 123.09919739 0.12428284 C138.42052026 0.16656427 153.74168256 0.18779413 169.06306458 0.18580627 C170.00717224 0.18568641 170.9512799 0.18556654 171.92399689 0.18544304 C172.86647726 0.18532197 173.80895762 0.18520091 174.779998 0.18507618 C192.22865311 0.18300662 209.67724005 0.20067413 227.12587306 0.22753583 C233.29524354 0.236583 239.4646015 0.23977426 245.63397789 0.24113274 C253.15009933 0.24317929 260.66610581 0.2565757 268.18217846 0.28413116 C272.01685399 0.29797926 275.85138252 0.30712383 279.68608475 0.30334854 C283.84158671 0.29945576 287.99665292 0.31880619 292.15209961 0.34057617 C293.36580504 0.33593037 294.57951047 0.33128456 295.82999486 0.32649797 C302.57660067 0.38507555 307.61172161 0.66003759 312.74885559 5.49562073 C313.22709778 6.09245667 313.70533997 6.6892926 314.19807434 7.30421448 C314.68920715 7.90362854 315.18033997 8.5030426 315.68635559 9.12062073 C318.94299618 13.52291989 318.36984293 18.47885434 317.88557434 23.74171448 C316.34937283 29.83462181 312.77815157 33.17673091 307.60113072 36.48569942 C302.50436008 38.84308766 297.34203131 38.55793974 291.81584167 38.49015808 C289.86998623 38.5020813 289.86998623 38.5020813 287.88482058 38.51424539 C284.30402015 38.53532205 280.72422528 38.51922716 277.14346933 38.49674439 C273.27429397 38.47900158 269.40524605 38.49596407 265.53607178 38.50846863 C257.96485361 38.52741378 250.39401754 38.51427304 242.8228278 38.48994274 C234.00318498 38.4626592 225.18363249 38.4659822 216.36395819 38.4702094 C200.62727014 38.47658448 184.89076334 38.45327955 169.15412903 38.41407776 C153.88812238 38.37605842 138.62232807 38.36190659 123.35627747 38.37306213 C106.72468716 38.38517961 90.09319014 38.38482114 73.46160758 38.36209047 C71.68805989 38.35967592 69.9145122 38.35726395 68.14096451 38.35485458 C66.83208989 38.35304397 66.83208989 38.35304397 65.49677335 38.35119677 C59.35040647 38.34344131 53.20407434 38.34422454 47.05770493 38.34802628 C39.56793767 38.35227183 32.07835629 38.34180946 24.58864139 38.31279917 C20.76797635 38.29831933 16.9475819 38.29014996 13.126894 38.29928589 C8.9847755 38.3089495 4.84339697 38.28759602 0.70133972 38.2631073 C-0.50556192 38.27066595 -1.71246356 38.27822459 -2.95593798 38.28601229 C-10.49543055 38.20697067 -15.087406 37.34483733 -20.82145691 32.21437073 C-24.74464771 27.20987645 -26.64726021 23.34027475 -26.41520691 16.85499573 C-25.7347007 12.07377676 -23.87240115 8.40659005 -20.35648555 5.07687241 C-13.70635686 0.18805917 -8.08610425 -0.10337431 0 0 Z " fill="#197F90" transform="translate(284.1144256591797,360.25828552246094)"/>
<path d="M0 0 C1.10179256 -0.00445784 2.20358511 -0.00891569 3.33876532 -0.01350862 C4.5541095 -0.01332426 5.76945368 -0.01313989 7.02162647 -0.01294994 C8.30894777 -0.01662663 9.59626906 -0.02030332 10.92260009 -0.02409142 C14.50327601 -0.03411561 18.08393517 -0.03782889 21.66462314 -0.04048073 C25.52366243 -0.04438255 29.38268843 -0.05396098 33.24171925 -0.0626936 C42.5650194 -0.08246154 51.88832064 -0.09252466 61.21163651 -0.10142139 C65.60134227 -0.10580377 69.99104681 -0.11117071 74.38075161 -0.11641026 C88.97178586 -0.13342291 103.56281935 -0.14791729 118.153862 -0.155159 C121.94082293 -0.15706891 125.72778385 -0.15898924 129.51474476 -0.16094494 C130.92660368 -0.16167055 130.92660368 -0.16167055 132.366985 -0.16241082 C147.61596322 -0.17071191 162.86486301 -0.19604999 178.11380699 -0.22852562 C193.76687395 -0.26159032 209.41990104 -0.27960723 225.07300311 -0.28280324 C233.86273741 -0.28496889 242.65235734 -0.29372554 251.44205761 -0.31926441 C258.92750866 -0.34096338 266.41281757 -0.34902581 273.8982965 -0.33929763 C277.71704705 -0.33475056 281.53550428 -0.3366625 285.35421467 -0.35605907 C289.49624419 -0.37691605 293.63762224 -0.36671316 297.77968311 -0.35352612 C299.58596897 -0.36997998 299.58596897 -0.36997998 301.42874545 -0.38676625 C308.33324649 -0.33362209 312.85439898 0.40198008 318.7181139 4.13422108 C322.70542292 8.33138847 325.00304318 12.1109198 325.0306139 17.94672108 C324.88584987 23.42362701 323.99560241 27.80401292 320.0306139 31.86078358 C315.75979847 35.61554214 313.28203261 37.25728568 307.51242352 37.27123547 C305.84704597 37.27884728 305.84704597 37.27884728 304.14802444 37.28661287 C302.91809457 37.28711063 301.68816471 37.28760838 300.42096424 37.28812122 C298.47288795 37.2946946 298.47288795 37.2946946 296.48545659 37.30140078 C292.86831904 37.31338588 289.25119484 37.31901922 285.63404131 37.32358193 C281.73749093 37.32953081 277.84095658 37.34114253 273.944417 37.35187244 C264.52726475 37.37641439 255.11010719 37.391027 245.69293278 37.40393251 C243.03368625 37.40764339 240.37444024 37.41161671 237.71519423 37.41568518 C221.20714907 37.44092258 204.6991031 37.46297915 188.1910429 37.47541332 C184.36575664 37.4783431 180.54047041 37.48130475 176.71518421 37.48431873 C175.28901927 37.48543781 175.28901927 37.48543781 173.83404292 37.48657949 C158.43301883 37.49923229 143.03211021 37.53245305 127.6311401 37.57412057 C111.82442391 37.61653568 96.01776684 37.64010794 80.21099389 37.64533389 C71.33402488 37.64874868 62.45723625 37.66051172 53.58032322 37.69343662 C46.01980401 37.72143263 38.45950214 37.73243853 30.89893512 37.72124116 C27.04164888 37.71605312 23.18481779 37.71895001 19.32759762 37.7437067 C15.14380412 37.77033505 10.96101308 37.75814378 6.77716541 37.74222279 C4.95234711 37.76304592 4.95234711 37.76304592 3.09066379 37.78428972 C-3.98151115 37.71788352 -8.85054788 36.85595505 -14.2818861 32.13422108 C-18.24147882 27.61368606 -20.14337902 22.33590012 -19.7662611 16.33343983 C-18.28622352 9.61359179 -13.70030632 5.02134862 -8.2818861 1.13422108 C-5.23665962 0.11914558 -3.18673932 0.00597167 0 0 Z " fill="#197F90" transform="translate(277.28188610076904,279.86577892303467)"/>
</svg>
