<?xml version="1.0" encoding="UTF-8"?>
<svg version="1.1" xmlns="http://www.w3.org/2000/svg" width="864" height="754">
<path d="M0 0 C285.12 0 570.24 0 864 0 C864 248.82 864 497.64 864 754 C578.88 754 293.76 754 0 754 C0 505.18 0 256.36 0 0 Z " fill="#208C99" transform="translate(0,0)"/>
<path d="M0 0 C3.60052554 2.74718997 6.77401683 5.82794664 10 9 C11.51202205 10.39397382 13.03715536 11.77259074 14.56347656 13.15087891 C19.22453674 17.36448897 23.73784967 21.69641214 28.14453125 26.17578125 C30.01413647 28.01389838 31.94850607 29.72985688 33.9375 31.4375 C36.92801716 34.00665271 39.73116684 36.69317256 42.5 39.5 C45.20803565 42.24500542 47.94169249 44.8727091 50.875 47.375 C54.76120081 50.70381743 58.33840417 54.30885399 61.92871094 57.94824219 C65.17332664 61.21987759 68.5359985 64.26948443 72.0390625 67.2578125 C75.09229171 69.97044244 77.9140315 72.90600453 80.78125 75.8125 C82.79430632 77.79720342 84.85446403 79.66096916 87 81.5 C90.79358733 84.75164628 94.27392647 88.25713094 97.78125 91.8125 C99.79430632 93.79720342 101.85446403 95.66096916 104 97.5 C107.79358733 100.75164628 111.27392647 104.25713094 114.78125 107.8125 C116.79430632 109.79720342 118.85446403 111.66096916 121 113.5 C124.79358733 116.75164628 128.27392647 120.25713094 131.78125 123.8125 C133.79430632 125.79720342 135.85446403 127.66096916 138 129.5 C141.79358733 132.75164628 145.27392647 136.25713094 148.78125 139.8125 C150.79430632 141.79720342 152.85446403 143.66096916 155 145.5 C158.79218759 148.75044651 162.27135531 152.25449569 165.77734375 155.80859375 C168.4270144 158.42101068 171.21172803 160.83302621 174.03515625 163.25390625 C176.81699148 165.72603418 179.39375951 168.38430547 182.00390625 171.03515625 C183.92107177 172.92230744 185.89575322 174.68685375 187.9375 176.4375 C191.74824063 179.71130653 195.25078165 183.23363971 198.77734375 186.80859375 C201.4270144 189.42101068 204.21172803 191.83302621 207.03515625 194.25390625 C209.10820324 196.09615675 211.05435802 198.02401662 213 200 C215.53972186 202.5792506 218.12451314 205.02217389 220.875 207.375 C224.11494195 210.17867254 227.23828536 213.07752236 230.3125 216.0625 C231.13363281 216.85785156 231.95476562 217.65320313 232.80078125 218.47265625 C237.17301447 223.49722978 238.63588582 227.94021929 238.41015625 234.4765625 C237.37528387 240.84349162 233.01173656 245.802381 228.00927734 249.65209961 C220.22396076 254.8747889 211.47231541 254.36773417 202.4375 254.1875 C201.14263672 254.17396484 199.84777344 254.16042969 198.51367188 254.14648438 C195.34200786 254.1113737 192.1712291 254.06219347 189 254 C189.00368717 255.13160049 189.00737434 256.26320099 189.01117325 257.42909241 C189.0999692 284.96268624 189.16570197 312.49626149 189.20724869 340.02996826 C189.22787439 353.34507669 189.25599524 366.66004984 189.30175781 379.97509766 C189.34162515 391.58040206 189.36743277 403.18563797 189.37635398 414.79100895 C189.38156884 420.93604576 189.3938262 427.08088659 189.42292023 433.2258606 C189.45008744 439.01078652 189.45844222 444.79543588 189.45243073 450.58041954 C189.45353036 452.70242504 189.46147626 454.82443986 189.4768219 456.94639015 C189.49676991 459.84724805 189.49192133 462.74706647 189.48101807 465.64794922 C189.49266943 466.48454606 189.5043208 467.3211429 189.51632524 468.18309116 C189.44384129 475.33446179 187.23498302 480.42117344 182.5625 485.8125 C177.04433498 490.52312867 172.75681421 492.12717839 165.5836792 492.12025452 C164.48434052 492.12162918 163.38500183 492.12300385 162.25234985 492.12442017 C161.05113495 492.12082489 159.84992004 492.11722961 158.61230469 492.11352539 C157.34375641 492.11367142 156.07520813 492.11381744 154.76821899 492.1139679 C151.29334589 492.11425474 147.81850732 492.10837617 144.34364223 492.10139394 C140.7108064 492.0951417 137.07796978 492.09455512 133.44512939 492.09336853 C126.56747412 492.09026074 119.68983475 492.08205477 112.81218648 492.07201904 C104.98153149 492.06084078 97.15087573 492.05534313 89.32021475 492.05032361 C73.21346719 492.03987171 57.10673563 492.02228294 41 492 C40.99853344 491.22216345 40.99706688 490.4443269 40.99555588 489.64291954 C40.95849935 470.71378814 40.89949998 451.78484146 40.81609726 432.85585594 C40.77629301 423.7019153 40.74390757 414.54806081 40.72900391 405.39404297 C40.71599456 397.41510999 40.68904829 389.43636645 40.64538693 381.45754015 C40.62275589 377.23302438 40.6070903 373.00874239 40.60811615 368.78416061 C40.6088618 364.80644528 40.59094968 360.82924704 40.55883217 356.8516655 C40.55032532 355.39323281 40.54858861 353.93474218 40.55419731 352.47629547 C40.56084574 350.48151849 40.54054152 348.48670646 40.51898193 346.49203491 C40.51529476 345.3766654 40.51160759 344.26129589 40.50780869 343.1121273 C39.74555957 338.44065093 37.45830863 335.28154395 33.9375 332.1875 C30.91164229 330.33294205 28.39179821 329.87344267 24.92118835 329.85282898 C24.09273407 329.84567368 23.26427979 329.83851837 22.41072083 329.83114624 C21.50520981 329.82845734 20.59969879 329.82576843 19.66674805 329.82299805 C18.71034424 329.81642685 17.75394043 329.80985565 16.76855469 329.80308533 C13.5996086 329.78335446 10.43070987 329.77169077 7.26171875 329.76171875 C5.63874343 329.75560546 5.63874343 329.75560546 3.98298073 329.74936867 C-1.74270817 329.72850982 -7.46837312 329.71420672 -13.1940918 329.70483398 C-19.10911629 329.69376401 -25.02376518 329.65935649 -30.93865681 329.61966228 C-35.4862895 329.5935255 -40.03383224 329.58514479 -44.58153343 329.58155251 C-46.76202115 329.57667975 -48.94250467 329.56504624 -51.12291908 329.54651451 C-54.17510448 329.5221839 -57.2263119 329.5230771 -60.27856445 329.5300293 C-61.17800278 329.51721924 -62.0774411 329.50440918 -63.00413513 329.49121094 C-68.48553464 329.53668974 -71.74273398 330.22089064 -76 334 C-79.33942252 338.29164594 -80.50104624 341.06648617 -80.51898193 346.49203491 C-80.53289474 347.77923431 -80.54680756 349.06643372 -80.56114197 350.39263916 C-80.55642962 351.80651983 -80.55133574 353.22039927 -80.54589844 354.63427734 C-80.55463849 356.13269115 -80.56512578 357.63109563 -80.57722473 359.12948608 C-80.60505285 363.1869271 -80.60849013 367.24406309 -80.60750484 371.30158567 C-80.6106367 375.54574104 -80.63626058 379.78975959 -80.65948486 384.03384399 C-80.70002753 392.06598376 -80.72038148 400.09804237 -80.73345876 408.13026869 C-80.74933468 417.27661853 -80.7877528 426.42283038 -80.82805204 435.56910014 C-80.91042725 454.37935645 -80.96453421 473.18959969 -81 492 C-97.94207374 492.09354845 -114.88406658 492.16403055 -131.82633972 492.20724869 C-139.69339648 492.22785132 -147.56029251 492.25592768 -155.42724609 492.30175781 C-162.28615683 492.3416963 -169.14495113 492.36744953 -176.00397491 492.37635398 C-179.63396117 492.38155694 -183.2636144 492.39373712 -186.89349365 492.42292023 C-190.95127981 492.45527727 -195.00849141 492.45595494 -199.06640625 492.45410156 C-200.26259079 492.46848267 -201.45877533 492.48286377 -202.69120789 492.49768066 C-210.64553771 492.45839203 -216.09184793 491.42473953 -222.2421875 486.03515625 C-222.78101563 485.38417969 -223.31984375 484.73320313 -223.875 484.0625 C-224.42929688 483.41410156 -224.98359375 482.76570313 -225.5546875 482.09765625 C-229.17444055 476.84412277 -229.28303957 472.18010358 -229.24050903 466.00871277 C-229.24221788 465.10197557 -229.24392673 464.19523838 -229.24568737 463.2610243 C-229.24898192 460.22235706 -229.23797903 457.18391057 -229.22705078 454.14526367 C-229.22648666 451.967214 -229.22680324 449.78916395 -229.22793579 447.6111145 C-229.22851027 441.69627672 -229.2167405 435.78151985 -229.20278788 429.86670089 C-229.19029641 423.68606586 -229.18911127 417.50542903 -229.18673706 411.32478333 C-229.18051764 399.61995473 -229.16410054 387.91516344 -229.14403808 376.21035129 C-229.12153308 362.88522168 -229.11068927 349.56009191 -229.10064721 336.23494756 C-229.07973474 308.82327768 -229.04454975 281.41164093 -229 254 C-229.83136475 254.02094727 -230.66272949 254.04189453 -231.51928711 254.06347656 C-234.64473266 254.1322107 -237.76978921 254.1820689 -240.89575195 254.21972656 C-242.89756051 254.24940781 -244.89901919 254.30027058 -246.90039062 254.3515625 C-257.97325339 254.46312787 -265.24268168 252.40306089 -273.3359375 244.77734375 C-277.001503 240.86224445 -278.17872412 237.38589247 -278.5 232.125 C-278.22570061 224.17031778 -273.52869781 219.07454718 -267.96948242 213.81079102 C-266.10273451 212.09445666 -264.20445273 210.42668957 -262.28515625 208.76953125 C-258.00425935 205.03490105 -253.86996413 201.16044214 -249.75 197.25 C-243.83619116 191.66030596 -237.88868877 186.11538798 -231.87890625 180.62890625 C-224.01727961 173.44997175 -216.21454093 166.20788042 -208.4375 158.9375 C-202.96983199 153.82640389 -197.47227871 148.75034836 -191.94921875 143.69921875 C-184.0712254 136.48902881 -176.23879823 129.2305574 -168.4375 121.9375 C-162.96983199 116.82640389 -157.47227871 111.75034836 -151.94921875 106.69921875 C-144.0712254 99.48902881 -136.23879823 92.2305574 -128.4375 84.9375 C-122.97251864 79.82891534 -117.47800848 74.75499303 -111.95703125 69.70703125 C-107.165567 65.32512121 -102.40117589 60.91380545 -97.63232422 56.50732422 C-96.02804639 55.02589866 -94.42245634 53.54591008 -92.81640625 52.06640625 C-87.00420142 46.71047999 -81.21092348 41.33522536 -75.4375 35.9375 C-69.97854793 30.83450608 -64.49254751 25.76355614 -58.97265625 20.7265625 C-56.86279527 18.79799014 -54.76943009 16.85296358 -52.68359375 14.8984375 C-37.04099851 0.25825361 -21.6230879 -12.57909882 0 0 Z " fill="#FEFEFE" transform="translate(451,134)"/>
</svg>
