<?xml version="1.0" encoding="UTF-8"?>
<svg version="1.1" xmlns="http://www.w3.org/2000/svg" width="864" height="754">
<path d="M0 0 C285.12 0 570.24 0 864 0 C864 248.82 864 497.64 864 754 C578.88 754 293.76 754 0 754 C0 505.18 0 256.36 0 0 Z " fill="#065677" transform="translate(0,0)"/>
<path d="M0 0 C0.70005147 -0.00205263 1.40010293 -0.00410527 2.12136808 -0.0062201 C4.48479052 -0.01190834 6.84815503 -0.01043061 9.21158314 -0.00901413 C10.9161388 -0.01159673 12.62069385 -0.01460959 14.32524806 -0.01801753 C19.02327969 -0.02610328 23.72129605 -0.02787798 28.41933382 -0.028615 C33.48083526 -0.03046284 38.54232872 -0.03800883 43.60382557 -0.04475021 C54.67821097 -0.05834553 65.75259276 -0.0643602 76.82698512 -0.06876087 C83.73935285 -0.07152143 90.65171918 -0.07575846 97.56408596 -0.08026505 C116.69478963 -0.09245959 135.82549217 -0.10275833 154.95619965 -0.10614014 C156.18117284 -0.1063597 157.40614604 -0.10657927 158.66823964 -0.10680549 C159.89618013 -0.10702377 161.12412063 -0.10724204 162.38927144 -0.10746694 C164.87763417 -0.10791041 167.3659969 -0.10835697 169.85435963 -0.10880661 C171.70583892 -0.10913875 171.70583892 -0.10913875 173.59472183 -0.10947761 C193.59657627 -0.11342588 213.59839428 -0.13087997 233.60023465 -0.15416613 C254.12591495 -0.17786964 274.65157697 -0.19034154 295.17727119 -0.19150805 C306.70565258 -0.19242541 318.23398652 -0.19819294 329.76235485 -0.21632767 C339.57906525 -0.23171518 349.39571355 -0.23685711 359.21243372 -0.22858956 C364.22197662 -0.2246782 369.2313944 -0.22563638 374.24092197 -0.23964691 C378.82725898 -0.25235666 383.41337647 -0.25121406 387.99971304 -0.2390562 C389.65857243 -0.23709412 391.31744721 -0.24020119 392.97628494 -0.24890056 C402.25887679 -0.29449723 409.80618871 -0.2476052 417.87511158 4.81892776 C423.73841781 10.682234 426.29509861 16.38681085 426.31203175 24.64255142 C426.30843647 25.36687866 426.30484119 26.0912059 426.30113697 26.83748245 C426.301283 27.60859863 426.30142902 28.37971481 426.30157948 29.17419815 C426.30088407 31.71726186 426.29310907 34.26025188 426.28526783 36.80330276 C426.28340233 38.56878494 426.28197905 40.33426764 426.28098011 42.09975052 C426.27716533 46.74234323 426.2673439 51.38490456 426.25627613 56.02748489 C426.24423934 61.60004401 426.23965482 67.17261363 426.23382282 72.74518204 C426.22413161 81.20728576 426.20496777 89.66932066 426.18761158 98.13142776 C410.01761158 98.13142776 393.84761158 98.13142776 377.18761158 98.13142776 C377.18761158 81.96142776 377.18761158 65.79142776 377.18761158 49.13142776 C295.67761158 49.13142776 214.16761158 49.13142776 130.18761158 49.13142776 C130.18761158 162.98142776 130.18761158 276.83142776 130.18761158 394.13142776 C211.69761158 394.13142776 293.20761158 394.13142776 377.18761158 394.13142776 C377.18761158 377.96142776 377.18761158 361.79142776 377.18761158 345.13142776 C393.35761158 345.13142776 409.52761158 345.13142776 426.18761158 345.13142776 C426.38815563 364.98528839 426.38815563 364.98528839 426.4317522 373.48494339 C426.46157676 379.27204344 426.49675922 385.05874582 426.56480885 390.84553909 C426.6193604 395.51400024 426.64908071 400.18203461 426.6619978 404.85079002 C426.67119631 406.62692414 426.68915881 408.40303637 426.71626186 410.1789875 C426.99330856 429.09466329 426.99330856 429.09466329 419.43170643 436.95721817 C413.74023187 442.40303069 407.73677552 444.50527216 399.93547058 444.5117445 C399.23646805 444.51640442 398.53746552 444.52106434 397.8172811 444.52586547 C395.4813181 444.53779074 393.14593939 444.5284299 390.80997181 444.51910782 C389.11576081 444.52328183 387.4215526 444.52875972 385.72734958 444.53542763 C381.07636859 444.54989229 376.42556465 444.5456343 371.77457392 444.53826082 C366.7567186 444.53353393 361.73890184 444.54603482 356.72105885 444.55627823 C346.89206053 444.5734815 337.0631261 444.57430299 327.23411664 444.56906532 C319.24475492 444.5650249 311.2554121 444.56646567 303.26605129 444.57181358 C301.56079458 444.57293622 301.56079458 444.57293622 299.82108823 444.57408153 C297.51162927 444.575613 295.20217032 444.57715135 292.89271138 444.5786965 C271.23045421 444.5924273 249.56823315 444.58697997 227.90597681 444.57551128 C208.0900047 444.56558036 188.27412599 444.57851614 168.45816829 444.60244548 C148.11088538 444.62683126 127.76364598 444.63644549 107.41634876 444.62979275 C95.99303142 444.62629911 84.5697859 444.62854206 73.14647961 444.64604378 C63.42102773 444.6607593 53.69569824 444.66140974 43.97024878 444.64397287 C39.00900681 444.63545482 34.04798351 444.63333302 29.08675289 444.64862442 C24.54234377 444.66245756 19.99834093 444.65772596 15.45395539 444.63838518 C13.81267978 444.63462063 12.17137173 444.63756029 10.53012498 444.64799684 C0.08130532 444.70969904 -8.13146469 443.77579393 -17.12488842 438.00642776 C-25.28441398 429.27763298 -25.52930052 419.95635429 -25.43384838 408.56938553 C-25.4381819 406.89178075 -25.44470198 405.21418045 -25.45320845 403.53659165 C-25.47015292 398.94539887 -25.45605169 394.35475387 -25.43669367 389.7635901 C-25.42123742 384.80512695 -25.43467602 379.84672965 -25.44443798 374.8882637 C-25.4589516 365.18261152 -25.44674391 355.47716878 -25.42532474 345.77153645 C-25.40129523 334.46761368 -25.40303028 323.1637387 -25.40563065 311.85979606 C-25.40931943 291.69134467 -25.38850634 271.52299189 -25.35438061 251.3545723 C-25.32128137 231.78553654 -25.30712398 212.21660424 -25.31336498 192.64754105 C-25.32012914 171.33328152 -25.31766868 150.0190653 -25.29800558 128.70481217 C-25.2969661 127.5777449 -25.29592661 126.45067764 -25.29485562 125.28945682 C-25.29276474 123.02584195 -25.29065377 120.76222709 -25.28852245 118.49861225 C-25.28162779 110.61945794 -25.28095738 102.74031697 -25.2824049 94.86116028 C-25.28384464 85.2605266 -25.27415276 75.65997727 -25.25045854 66.05937158 C-25.23859978 61.16118186 -25.23147266 56.2631097 -25.2372961 51.36490631 C-25.24246996 46.88059826 -25.23377246 42.39653852 -25.2140215 37.91227295 C-25.20928411 36.29064359 -25.20957872 34.66899005 -25.21543187 33.04736434 C-25.2453627 23.86753523 -25.13481169 16.42269445 -20.12488842 8.44392776 C-14.1940925 2.51313185 -8.34592838 0.0083082 0 0 Z " fill="#FEFEFE" transform="translate(208.81238842010498,154.86857223510742)"/>
<path d="M0 0 C5.41343603 4.52265932 10.46257344 9.30334883 15.45800781 14.28100586 C16.68126266 15.49440392 16.68126266 15.49440392 17.92922974 16.73231506 C20.60676385 19.39025616 23.28037058 22.05209679 25.953125 24.71484375 C27.32798191 26.08358737 27.32798191 26.08358737 28.73061371 27.47998238 C33.07655792 31.80726961 37.42045966 36.13658551 41.7612679 40.4690246 C46.75554824 45.45351289 51.75802025 50.42958888 56.7675221 55.3987779 C61.12186945 59.7192911 65.46515933 64.05076902 69.80464935 68.38620186 C71.64647239 70.22315466 73.49167221 72.05672824 75.34030914 73.88682365 C77.92289796 76.44509424 80.49259798 79.01567275 83.05957031 81.58959961 C84.20508865 82.71590286 84.20508865 82.71590286 85.37374878 83.86495972 C91.037082 89.58440785 94.42618459 94.52422547 94.4375 102.875 C93.84608416 121.16339746 74.84757329 134.28768732 62.83984375 146.2578125 C61.08128806 148.01450014 59.32295523 149.77141089 57.56483459 151.52853394 C52.96564601 156.12392782 48.3634609 160.71630906 43.76062012 165.30804443 C39.05277314 170.00561138 34.34780153 174.70605533 29.64257812 179.40625 C20.43117827 188.60696634 11.21670393 197.80459711 2 207 C-0.97151477 205.57380422 -3.06359013 204.18193693 -5.39160156 201.83544922 C-6.0319635 201.19493622 -6.67232544 200.55442322 -7.33209229 199.89450073 C-8.35106598 198.86004318 -8.35106598 198.86004318 -9.390625 197.8046875 C-10.09523865 197.09724396 -10.79985229 196.38980042 -11.52581787 195.66091919 C-13.7719539 193.40360138 -16.01103009 191.13942367 -18.25 188.875 C-19.77297717 187.34199047 -21.29640939 185.80943285 -22.8203125 184.27734375 C-26.55217255 180.52344985 -30.27771661 176.76338914 -34 173 C-20.65392765 157.42958226 -5.50095782 143.50095782 9 129 C-103.53 128.67 -216.06 128.34 -332 128 C-332 111.83 -332 95.66 -332 79 C-163.205 78.505 -163.205 78.505 9 78 C-5.19 63.81 -19.38 49.62 -34 35 C-27.25 27.125 -27.25 27.125 -24.74853516 24.63500977 C-24.18840729 24.07495743 -23.62827942 23.51490509 -23.05117798 22.93788147 C-22.46967987 22.36154465 -21.88818176 21.78520782 -21.2890625 21.19140625 C-20.67606293 20.57982162 -20.06306335 19.968237 -19.43148804 19.33811951 C-17.49835436 17.41052441 -15.56175013 15.48646072 -13.625 13.5625 C-12.30315301 12.24567596 -10.98153628 10.92862074 -9.66015625 9.61132812 C-6.44275701 6.40487627 -3.22224319 3.20158371 0 0 Z " fill="#FEFEFE" transform="translate(689,273)"/>
</svg>
