<?xml version="1.0" encoding="UTF-8"?>
<svg version="1.1" xmlns="http://www.w3.org/2000/svg" width="864" height="754">
<path d="M0 0 C285.12 0 570.24 0 864 0 C864 248.82 864 497.64 864 754 C578.88 754 293.76 754 0 754 C0 505.18 0 256.36 0 0 Z " fill="#106B84" transform="translate(0,0)"/>
<path d="M0 0 C1.36936203 -0.00200912 1.36936203 -0.00200912 2.76638794 -0.00405884 C15.33736417 -0.00005793 27.53417826 0.38784613 39.90185547 2.83984375 C42.11777088 3.2604921 44.33282428 3.59371251 46.56640625 3.90625 C58.38962658 5.59473243 69.69482754 8.61854536 81.0625 12.25 C81.92294922 12.52408691 82.78339844 12.79817383 83.66992188 13.08056641 C113.8003745 22.89166752 142.59964725 38.06252099 167.0625 58.25 C167.84004639 58.87745117 167.84004639 58.87745117 168.63330078 59.51757812 C183.7795141 71.76597721 198.29815122 85.69997484 210.0625 101.25 C210.82949219 102.20003906 211.59648438 103.15007812 212.38671875 104.12890625 C250.6023467 152.06342232 268.26056919 211.1100842 268.3125 271.75 C268.31350708 272.57705444 268.31451416 273.40410889 268.31555176 274.25622559 C268.30422161 288.10100275 267.54601054 301.60139684 265.0625 315.25 C264.92328125 316.02537109 264.7840625 316.80074219 264.640625 317.59960938 C263.6560115 322.87367334 262.42458813 328.06164421 261.0625 333.25 C260.83079102 334.14090332 260.59908203 335.03180664 260.36035156 335.94970703 C249.29362167 377.75972711 229.46753946 416.10655568 200.11328125 448.015625 C198.19864309 450.10166886 196.34427042 452.22682046 194.5 454.375 C188.52625759 461.21589857 182.01012979 467.41138154 175.0625 473.25 C174.52125488 473.71035645 173.98000977 474.17071289 173.42236328 474.64501953 C163.47331126 483.07655493 153.18055022 490.4447 142.0625 497.25 C141.38106934 497.6737793 140.69963867 498.09755859 139.99755859 498.53417969 C113.95791696 514.68558553 85.92643069 525.5985649 56.0625 532.25 C55.34271973 532.41725586 54.62293945 532.58451172 53.88134766 532.75683594 C36.10837797 536.88389257 17.93325654 537.66644982 -0.25 537.625 C-1.67625198 537.62368576 -1.67625198 537.62368576 -3.13131714 537.62234497 C-60.47591042 537.44944189 -116.30221779 519.43954391 -161.9375 484.25 C-162.7728125 483.60675781 -163.608125 482.96351563 -164.46875 482.30078125 C-169.68670549 478.20210942 -174.65769957 473.8815511 -179.55859375 469.41015625 C-181.72021952 467.44730067 -183.91276262 465.5303374 -186.125 463.625 C-192.59728335 457.97149949 -198.4078515 451.8208803 -203.9375 445.25 C-204.40462402 444.69666992 -204.87174805 444.14333984 -205.35302734 443.57324219 C-213.23158483 434.19763586 -220.43631737 424.62740564 -226.9375 414.25 C-227.4104248 413.50266602 -227.88334961 412.75533203 -228.37060547 411.98535156 C-239.8712003 393.71463761 -249.08487734 374.72719895 -255.9375 354.25 C-256.33146973 353.09395264 -256.33146973 353.09395264 -256.73339844 351.91455078 C-260.17812231 341.67618422 -262.68213151 331.36330401 -264.6875 320.75 C-264.88617676 319.70779297 -265.08485352 318.66558594 -265.28955078 317.59179688 C-268.18645343 301.39694437 -269.27679512 285.21831444 -269.19824219 268.78564453 C-269.1874741 266.11858564 -269.19824893 263.45219571 -269.2109375 260.78515625 C-269.26955041 197.02895833 -242.26115402 132.69939422 -198.31298828 86.7109375 C-196.21461284 84.48220505 -194.20700419 82.1750871 -192.1875 79.875 C-189.05756704 76.39357725 -185.84793731 73.2181481 -182.265625 70.20703125 C-180.45739598 68.68702666 -178.68534411 67.14484257 -176.921875 65.57421875 C-164.27913454 54.39409156 -150.5547387 44.69288035 -135.9375 36.25 C-135.21224121 35.8286377 -134.48698242 35.40727539 -133.73974609 34.97314453 C-121.82154331 28.09753993 -109.76665453 22.21721435 -96.9375 17.25 C-96.26783203 16.98380859 -95.59816406 16.71761719 -94.90820312 16.44335938 C-74.90817075 8.55123871 -53.29952585 3.53599796 -31.9375 1.25 C-31.10404053 1.1571875 -30.27058105 1.064375 -29.41186523 0.96875 C-19.626214 0.00995992 -9.82334712 0.0085225 0 0 Z " fill="#FEFEFE" transform="translate(431.9375,107.75)"/>
<path d="M0 0 C5.15613976 2.78431547 8.41838974 6.15310152 11.25 11.25 C13.14344031 18.19261445 11.80462688 25.19886432 10.2421875 32.08203125 C10.05878311 32.92515366 9.87537872 33.76827606 9.68641663 34.63694763 C9.09119258 37.36409548 8.48312645 40.08820326 7.875 42.8125 C7.45681467 44.71886759 7.03958667 46.62544543 6.62329102 48.53222656 C5.79734986 52.3103872 4.96699542 56.08752809 4.13232422 59.86376953 C2.7064987 66.32000573 1.31799265 72.78391903 -0.0625 79.25 C-0.29203369 80.31992187 -0.52156738 81.38984375 -0.75805664 82.4921875 C-3.06558972 93.26014675 -5.32482461 104.03823961 -7.58816528 114.81555176 C-9.71017941 124.91706925 -11.85801987 135.01172496 -14.06884766 145.09423828 C-16.07597148 154.28126335 -18.0048009 163.48459841 -19.9375 172.6875 C-22.71618715 185.91640059 -25.5146231 199.14058157 -28.359375 212.35546875 C-29.47035231 217.51953441 -30.57122045 222.68565467 -31.66685486 227.85299683 C-32.47142313 231.64597616 -33.27849093 235.43842196 -34.08572388 239.23083496 C-34.48191175 241.09510194 -34.87702075 242.95959857 -35.27096558 244.82434082 C-41.71367639 275.31186725 -41.71367639 275.31186725 -49.6875 280.875 C-55.18993473 282.74375142 -60.01072314 283.31166997 -65.45703125 280.921875 C-73.15316328 276.2403569 -80.1236742 270.30842439 -87.19140625 264.74609375 C-91.87571529 261.07460828 -96.63850803 257.51975603 -101.4375 254 C-102.22592285 253.42161377 -103.0143457 252.84322754 -103.82666016 252.24731445 C-106.21661144 250.49661547 -108.6081831 248.74814902 -111 247 C-121.80276634 239.09400209 -132.52653137 231.09942532 -143.15917969 222.96582031 C-151.22997986 216.80174296 -159.39444621 210.77144758 -167.58691406 204.77050781 C-170.16302416 202.88038737 -172.73437921 200.98393929 -175.3046875 199.0859375 C-176.17399902 198.44414551 -177.04331055 197.80235352 -177.93896484 197.14111328 C-179.6088189 195.90806376 -181.27842717 194.67468129 -182.94775391 193.44091797 C-183.69718262 192.88807129 -184.44661133 192.33522461 -185.21875 191.765625 C-186.2077832 191.03520996 -186.2077832 191.03520996 -187.21679688 190.29003906 C-188.78467986 189.15577103 -190.38985454 188.07343031 -192 187 C-190.64571539 183.89587239 -189.22865747 182.08524276 -186.625 179.9375 C-183.00279871 176.87509346 -179.4834801 173.71842082 -176 170.5 C-172.70028099 167.46051603 -169.39048959 164.43842431 -166 161.5 C-162.12182987 158.13677362 -158.34472189 154.66664329 -154.56689453 151.19189453 C-149.74415109 146.75776372 -144.8765888 142.3748176 -140 138 C-138.33307353 136.50028872 -136.66640851 135.00028679 -135 133.5 C-132.52497766 131.27170886 -130.04928246 129.0442116 -127.5703125 126.8203125 C-122.9796939 122.69902232 -118.41552893 118.55126212 -113.875 114.375 C-110.00361736 110.8149821 -106.09052085 107.31294132 -102.1171875 103.8671875 C-98.89111482 101.02205329 -95.7326456 98.10367121 -92.56689453 95.19189453 C-87.74415109 90.75776372 -82.8765888 86.3748176 -78 82 C-76.33307353 80.50028872 -74.66640851 79.00028679 -73 77.5 C-72.17757812 76.76007813 -71.35515625 76.02015625 -70.5078125 75.2578125 C-68.81407106 73.73291756 -67.12138831 72.20684598 -65.4296875 70.6796875 C-64.58664062 69.91914063 -63.74359375 69.15859375 -62.875 68.375 C-62.05902344 67.63507813 -61.24304688 66.89515625 -60.40234375 66.1328125 C-58.83735314 64.7434062 -57.24683049 63.3820784 -55.62890625 62.0546875 C-54.90574219 61.45914063 -54.18257813 60.86359375 -53.4375 60.25 C-52.79683594 59.73953125 -52.15617187 59.2290625 -51.49609375 58.703125 C-49.60708263 56.55271025 -49.34779166 54.80139037 -49 52 C-56.7912418 52.61509804 -63.39716794 56.74326321 -69.60546875 61.2265625 C-75.12077463 65.13217221 -80.81318374 68.70136114 -86.5625 72.25 C-93.58127817 76.60781282 -100.5822164 80.98338106 -107.5 85.5 C-114.15298712 89.84056442 -120.87857601 94.05632054 -127.625 98.25 C-135.73711075 103.29275031 -143.77116148 108.4365963 -151.75 113.6875 C-159.53791316 118.80915012 -167.42031416 123.70334351 -175.44458008 128.44433594 C-182.87962496 132.8645765 -190.10231283 137.58340712 -197.32592773 142.33911133 C-204.86203398 147.28984271 -212.48772379 152.07758155 -220.17553711 156.78881836 C-220.98514893 157.28518799 -221.79476074 157.78155762 -222.62890625 158.29296875 C-223.39219238 158.75364746 -224.15547852 159.21432617 -224.94189453 159.68896484 C-227.22793369 161.09305705 -227.22793369 161.09305705 -230.02734375 163.42578125 C-235.49700326 166.32232893 -241.46657009 164.25512157 -247.18994141 162.58886719 C-249.07983228 162.00008297 -250.96694306 161.40232023 -252.8515625 160.796875 C-253.86866302 160.47720764 -254.88576355 160.15754028 -255.9336853 159.82818604 C-259.16663174 158.80987523 -262.3957646 157.78001057 -265.625 156.75 C-267.76929958 156.07348402 -269.91382913 155.39769648 -272.05859375 154.72265625 C-282.02888707 151.57703116 -291.98075613 148.38609513 -301.87988281 145.02270508 C-306.28210789 143.57975352 -310.73034607 142.32253804 -315.1953125 141.08984375 C-318.9756063 139.6208995 -322.14942243 137.70115515 -324 134 C-324.48594564 131.01490538 -324.50793094 128.911465 -323.01171875 126.2265625 C-316.92247787 118.37058413 -306.82665986 115.37499266 -297.80859375 112.0234375 C-296.84700851 111.66078293 -295.88542328 111.29812836 -294.8946991 110.92448425 C-292.82503204 110.14436413 -290.75449409 109.36655125 -288.6831665 108.59085083 C-283.0617138 106.48501281 -277.44725987 104.36064774 -271.83203125 102.23828125 C-270.67693054 101.80215012 -269.52182983 101.36601898 -268.33172607 100.91667175 C-256.73618337 96.53357282 -245.17771863 92.05701672 -233.625 87.5625 C-229.54444901 85.97610382 -225.4636945 84.39023198 -221.3828125 82.8046875 C-220.36673416 82.40987686 -219.35065582 82.01506622 -218.30378723 81.60829163 C-206.7130276 77.10739553 -195.10686277 72.64666773 -183.5 68.1875 C-165.16046859 61.14099361 -146.82747684 54.07780159 -128.5 47 C-104.69748257 37.8084886 -80.88589407 28.64076107 -57.06892395 19.48677063 C-50.10877578 16.81141917 -43.14980198 14.13303074 -36.19140625 11.453125 C-33.46642427 10.40392494 -30.74142404 9.3547723 -28.01641846 8.30563354 C-26.31527962 7.65053022 -24.61422786 6.99520072 -22.91326904 6.33963013 C-20.60777222 5.45108638 -18.3019685 4.56334367 -15.99609375 3.67578125 C-15.32381241 3.41641785 -14.65153107 3.15705444 -13.95887756 2.88983154 C-5.13646776 -0.50357527 -5.13646776 -0.50357527 0 0 Z " fill="#106B84" transform="translate(565,250)"/>
</svg>
